<svg id="Layer_1" data-name="Layer 1" xmlns="http://www.w3.org/2000/svg" viewBox="0 0 15 16"><title>Icon chan trang</title><path d="M7,7.73a.57.57,0,0,0-.71.14A1,1,0,0,0,6.31,9,.55.55,0,0,0,7,9.17a.76.76,0,0,0,.38-.72A.79.79,0,0,0,7,7.73Zm0,0a.57.57,0,0,0-.71.14A1,1,0,0,0,6.31,9,.55.55,0,0,0,7,9.17a.76.76,0,0,0,.38-.72A.79.79,0,0,0,7,7.73ZM7.49,1.5C3.54,1.5.33,4.41.33,8a6.17,6.17,0,0,0,1.86,4.35h0l0,0,.11.1a.61.61,0,0,1,0,.71,3.18,3.18,0,0,1-1.16,1.07.1.1,0,0,0,0,.18,4.34,4.34,0,0,0,2-.13,2.62,2.62,0,0,1,1.94-.18h0a7.8,7.8,0,0,0,2.38.38c4,0,7.17-2.91,7.17-6.5S11.46,1.5,7.49,1.5ZM4.77,10H2.53A.56.56,0,0,1,2,9.76a.6.6,0,0,1,.11-.66L3.72,6.91a.43.43,0,0,0,.13-.26H2.66a1.13,1.13,0,0,1-.32,0A.37.37,0,0,1,2,6.23a.37.37,0,0,1,.37-.41c.79,0,1.59,0,2.39,0a.43.43,0,0,1,.35.65,3.64,3.64,0,0,1-.37.59L3.16,9.13H4.71c.23,0,.45,0,.51.33S5.13,10,4.77,10Zm3.55-.54c0,.23,0,.43-.26.54a.44.44,0,0,1-.58-.14s-.07-.06-.14,0a1.31,1.31,0,0,1-2-.8,1.86,1.86,0,0,1,.3-1.77,1.24,1.24,0,0,1,1.82-.19c.16-.18.33-.34.6-.23s.31.35.31.61Zm1.32.07c0,.33-.17.53-.46.53s-.45-.2-.45-.54c0-1.18,0-2.35,0-3.53,0-.35.16-.53.44-.54s.46.19.47.55Zm2.64.39a1.46,1.46,0,0,1-1.57,0,1.8,1.8,0,0,1-.5-2.4A1.54,1.54,0,0,1,12.32,7a1.6,1.6,0,0,1,.76,1.47A1.57,1.57,0,0,1,12.28,9.93Zm-.44-2.17a.56.56,0,0,0-.76.12,1,1,0,0,0,0,1.14.58.58,0,0,0,.77.12.77.77,0,0,0,.32-.69A.78.78,0,0,0,11.84,7.76ZM7,7.73a.57.57,0,0,0-.71.14A1,1,0,0,0,6.31,9,.55.55,0,0,0,7,9.17a.76.76,0,0,0,.38-.72A.79.79,0,0,0,7,7.73Zm0,0a.57.57,0,0,0-.71.14A1,1,0,0,0,6.31,9,.55.55,0,0,0,7,9.17a.76.76,0,0,0,.38-.72A.79.79,0,0,0,7,7.73Zm0,0a.57.57,0,0,0-.71.14A1,1,0,0,0,6.31,9,.55.55,0,0,0,7,9.17a.76.76,0,0,0,.38-.72A.79.79,0,0,0,7,7.73Z"/></svg>